<?xml version="1.0" encoding="UTF-8"?>
<svg version="1.1" xmlns="http://www.w3.org/2000/svg" width="991" height="991">
<path d="M0 0 C2.6866948 0.00460895 5.37293432 -0.00223026 8.05957031 -0.02050781 C33.29338755 -0.17931773 58.18274717 1.52285254 83.11376953 5.56567383 C83.75495728 5.66794281 84.39614502 5.77021179 85.0567627 5.87557983 C128.16374221 12.79915041 170.66671102 25.73210463 210.29833984 44.04418945 C212.86280869 45.22863019 215.43599796 46.39143078 218.01220703 47.55004883 C230.79150884 53.36965627 242.92630296 60.25050046 255.05126953 67.31567383 C255.92460938 67.82001953 256.79794922 68.32436523 257.69775391 68.84399414 C280.89087483 82.26552897 302.54835227 98.07792703 323.05126953 115.31567383 C323.57221191 115.75169922 324.0931543 116.18772461 324.62988281 116.63696289 C337.12082774 127.11464856 348.9960342 138.19198941 360.55126953 149.69067383 C361.19757324 150.33230469 361.84387695 150.97393555 362.50976562 151.63500977 C366.89207029 156.03206966 370.99851458 160.61542334 375.05126953 165.31567383 C376.0731019 166.47204212 377.09648853 167.62703922 378.12158203 168.78051758 C385.60751277 177.26303485 392.61764049 186.01994962 399.38330078 195.08569336 C401.07432003 197.34649105 402.78089919 199.59493204 404.48876953 201.84301758 C418.08486247 219.86459501 429.75878502 238.95660717 440.62744141 258.72631836 C441.88915461 261.02085372 443.16436072 263.30727672 444.44189453 265.59301758 C471.66294843 314.95040381 488.41211703 371.27666233 496.23876953 426.94067383 C496.39361816 428.03404053 496.5484668 429.12740723 496.70800781 430.25390625 C497.20118204 433.93661366 497.64180537 437.6229245 498.05126953 441.31567383 C498.18367538 442.4909967 498.18367538 442.4909967 498.3187561 443.69006348 C500.04797216 459.54105284 500.39650388 475.33044893 500.36694336 491.2644043 C500.36233441 493.9510991 500.36917362 496.63733862 500.38745117 499.32397461 C500.54626109 524.55779184 498.84409082 549.44715147 494.80126953 574.37817383 C494.69900055 575.01936157 494.59673157 575.66054932 494.49136353 576.32116699 C487.56779295 619.4281465 474.63483873 661.93111531 456.32275391 701.56274414 C455.13831317 704.12721299 453.97551258 706.70040225 452.81689453 709.27661133 C446.99728709 722.05591314 440.1164429 734.19070725 433.05126953 746.31567383 C432.54692383 747.18901367 432.04257812 748.06235352 431.52294922 748.9621582 C418.10141439 772.15527912 402.28901633 793.81275656 385.05126953 814.31567383 C384.61524414 814.83661621 384.17921875 815.35755859 383.72998047 815.89428711 C373.2522948 828.38523204 362.17495395 840.2604385 350.67626953 851.81567383 C350.03463867 852.46197754 349.39300781 853.10828125 348.73193359 853.77416992 C344.3348737 858.15647458 339.75152002 862.26291888 335.05126953 866.31567383 C333.89490124 867.33750619 332.73990414 868.36089283 331.58642578 869.38598633 C323.10390851 876.87191707 314.34699374 883.88204479 305.28125 890.64770508 C303.02045231 892.33872433 300.77201132 894.04530349 298.52392578 895.75317383 C280.50234835 909.34926677 261.41033619 921.02318932 241.640625 931.8918457 C239.34608964 933.15355891 237.05966664 934.42876502 234.77392578 935.70629883 C185.41653955 962.92735273 129.09028103 979.67652133 73.42626953 987.50317383 C72.33290283 987.65802246 71.23953613 987.81287109 70.11303711 987.97241211 C66.4303297 988.46558633 62.74401886 988.90620967 59.05126953 989.31567383 C57.87594666 989.44807968 57.87594666 989.44807968 56.67687988 989.5831604 C40.82589052 991.31237646 25.03649443 991.66090818 9.10253906 991.63134766 C6.41584426 991.62673871 3.72960474 991.63357792 1.04296875 991.65185547 C-24.19084848 991.81066539 -49.08020811 990.10849512 -74.01123047 986.06567383 C-74.65241821 985.96340485 -75.29360596 985.86113586 -75.95422363 985.75576782 C-119.06120314 978.83219725 -161.56417195 965.89924302 -201.19580078 947.5871582 C-203.76026963 946.40271747 -206.33345889 945.23991688 -208.90966797 944.08129883 C-221.68896978 938.26169138 -233.8237639 931.38084719 -245.94873047 924.31567383 C-246.82207031 923.81132813 -247.69541016 923.30698242 -248.59521484 922.78735352 C-271.78833576 909.36581868 -293.4458132 893.55342062 -313.94873047 876.31567383 C-314.46967285 875.87964844 -314.99061523 875.44362305 -315.52734375 874.99438477 C-328.01828868 864.5166991 -339.89349514 853.43935825 -351.44873047 841.94067383 C-352.41818604 840.97822754 -352.41818604 840.97822754 -353.40722656 839.99633789 C-357.78953122 835.59927799 -361.89597552 831.01592432 -365.94873047 826.31567383 C-366.97056284 825.15930554 -367.99394947 824.00430843 -369.01904297 822.85083008 C-376.50497371 814.36831281 -383.51510143 805.61139803 -390.28076172 796.5456543 C-391.97178097 794.2848566 -393.67836013 792.03641561 -395.38623047 789.78833008 C-408.98232341 771.76675265 -420.65624596 752.67474048 -431.52490234 732.9050293 C-432.78661555 730.61049393 -434.06182166 728.32407094 -435.33935547 726.03833008 C-462.56040937 676.68094384 -479.30957797 620.35468532 -487.13623047 564.69067383 C-487.2910791 563.59730713 -487.44592773 562.50394043 -487.60546875 561.37744141 C-488.09864297 557.69473399 -488.53926631 554.00842315 -488.94873047 550.31567383 C-489.08113632 549.14035095 -489.08113632 549.14035095 -489.21621704 547.94128418 C-490.9454331 532.09029482 -491.29396482 516.30089873 -491.2644043 500.36694336 C-491.25979535 497.68024856 -491.26663456 494.99400904 -491.28491211 492.30737305 C-491.44372203 467.07355581 -489.74155176 442.18419619 -485.69873047 417.25317383 C-485.59646149 416.61198608 -485.4941925 415.97079834 -485.38882446 415.31018066 C-478.46525389 372.20320115 -465.53229966 329.70023234 -447.22021484 290.06860352 C-446.03577411 287.50413467 -444.87297352 284.9309454 -443.71435547 282.35473633 C-437.89474802 269.57543452 -431.01390383 257.4406404 -423.94873047 245.31567383 C-423.44438477 244.44233398 -422.94003906 243.56899414 -422.42041016 242.66918945 C-408.99887532 219.47606853 -393.18647726 197.81859109 -375.94873047 177.31567383 C-375.29469238 176.53426025 -375.29469238 176.53426025 -374.62744141 175.73706055 C-364.14975574 163.24611561 -353.07241489 151.37090916 -341.57373047 139.81567383 C-340.93209961 139.16937012 -340.29046875 138.52306641 -339.62939453 137.85717773 C-335.23233463 133.47487307 -330.64898096 129.36842878 -325.94873047 125.31567383 C-324.79236218 124.29384146 -323.63736508 123.27045483 -322.48388672 122.24536133 C-314.00136945 114.75943059 -305.24445467 107.74930287 -296.17871094 100.98364258 C-293.91791324 99.29262333 -291.66947225 97.58604417 -289.42138672 95.87817383 C-271.39980929 82.28208089 -252.30779713 70.60815834 -232.53808594 59.73950195 C-230.24355057 58.47778875 -227.95712758 57.20258264 -225.67138672 55.92504883 C-176.31400048 28.70399493 -119.98774196 11.95482633 -64.32373047 4.12817383 C-63.23036377 3.9733252 -62.13699707 3.81847656 -61.01049805 3.65893555 C-57.32779063 3.16576132 -53.64147979 2.72513799 -49.94873047 2.31567383 C-49.16518188 2.22740326 -48.3816333 2.13913269 -47.57434082 2.04818726 C-31.72335146 0.3189712 -15.93395537 -0.02956052 0 0 Z " fill="#FDFDFD" transform="translate(490.94873046875,-0.315673828125)"/>
<path d="M0 0 C1.18335938 0.75216797 1.18335938 0.75216797 2.390625 1.51953125 C3.24140625 2.03128906 4.0921875 2.54304687 4.96875 3.0703125 C5.85046875 3.65167969 6.7321875 4.23304688 7.640625 4.83203125 C26.2318152 16.82236004 47.36396534 26.12140754 68.57421875 32.37109375 C72.32916253 33.50103589 76.00589559 34.77712675 79.703125 36.08203125 C85.36005026 37.98752186 90.9809295 39.39239296 96.828125 40.58203125 C97.62395996 40.74396973 98.41979492 40.9059082 99.23974609 41.07275391 C100.83551297 41.39567195 102.43137841 41.71810334 104.02734375 42.04003906 C107.80416771 42.80632855 111.5708333 43.59987595 115.328125 44.45703125 C116.59527344 44.73417969 117.86242187 45.01132813 119.16796875 45.296875 C123.5297835 46.95172108 125.34435526 49.42699178 127.390625 53.51953125 C127.50692398 55.25804306 127.56026789 57.00092148 127.58349609 58.74316406 C127.60724304 60.39288208 127.60724304 60.39288208 127.63146973 62.07592773 C127.64222534 63.27934814 127.65298096 64.48276855 127.6640625 65.72265625 C127.68285461 67.59594604 127.68285461 67.59594604 127.70202637 69.50708008 C127.73498821 73.59460138 127.75476303 77.68190305 127.765625 81.76953125 C127.76763161 82.46241745 127.76963821 83.15530365 127.77170563 83.8691864 C127.82386628 107.07890777 126.74956635 129.6761007 122.390625 152.51953125 C122.06964844 154.2689502 122.06964844 154.2689502 121.7421875 156.05371094 C112.87762682 202.74313316 87.39319097 247.06801994 47.875 274.1875 C36.51331388 281.8381613 24.6652466 288.4547401 12.390625 294.51953125 C11.73932617 294.84211914 11.08802734 295.16470703 10.41699219 295.49707031 C8.71832264 296.31488056 6.99256223 297.0757379 5.265625 297.83203125 C4.33492187 298.24066406 3.40421875 298.64929688 2.4453125 299.0703125 C-14.51119779 301.56391696 -39.68416369 281.70258446 -52.796875 272.08203125 C-99.62208395 235.99421757 -120.83028234 187.3564423 -128.609375 129.51953125 C-130.58449686 113.51481201 -130.77994335 97.49689604 -130.796875 81.39453125 C-130.79805328 80.52146332 -130.79923157 79.64839539 -130.80044556 78.74887085 C-130.80005976 76.23223246 -130.79077792 73.71581859 -130.77734375 71.19921875 C-130.77612518 70.45645187 -130.77490662 69.713685 -130.77365112 68.94841003 C-130.64068636 53.81614533 -130.64068636 53.81614533 -127.296875 49.58203125 C-126.88824219 49.03675781 -126.47960937 48.49148437 -126.05859375 47.9296875 C-122.55223716 44.51784187 -118.2362925 43.89986177 -113.5625 42.96875 C-112.14450639 42.67915815 -110.72653854 42.38944017 -109.30859375 42.09960938 C-107.10488044 41.65610541 -104.90068554 41.21523089 -102.69580078 40.77758789 C-69.99366388 34.25279322 -32.28650524 22.6258552 -5.86328125 1.55859375 C-2.609375 -0.48046875 -2.609375 -0.48046875 0 0 Z " fill="#25C1B0" transform="translate(536.609375,176.48046875)"/>
<path d="M0 0 C1.09852295 0.00031723 1.09852295 0.00031723 2.21923828 0.00064087 C32.97119746 0.08851551 60.42414885 8.20615474 87.5 22.375 C88.40153809 22.84462158 88.40153809 22.84462158 89.32128906 23.32373047 C132.14121434 45.90520419 161.99421497 86.71396091 176.24536133 132.34960938 C189.73366464 177.64645109 183.08480585 228.71525688 160.97143555 270.15014648 C156.429922 278.46200574 151.45950947 285.99757504 145.5 293.375 C144.85160156 294.22578125 144.20320313 295.0765625 143.53515625 295.953125 C133.04144601 309.40763256 120.52132032 321.64662714 106.5 331.375 C105.95311523 331.7555957 105.40623047 332.13619141 104.84277344 332.52832031 C84.45996486 346.56719999 61.50020851 355.56702609 37.4375 361 C36.50873047 361.2165625 35.57996094 361.433125 34.62304688 361.65625 C23.68696846 364.14276888 13.12730234 364.57843874 1.9375 364.5625 C0.86594162 364.56209213 0.86594162 364.56209213 -0.2272644 364.56167603 C-10.45917085 364.54372909 -20.40143383 364.2293566 -30.5 362.375 C-31.63308594 362.20355469 -32.76617187 362.03210938 -33.93359375 361.85546875 C-51.23137306 358.91882495 -68.38398983 352.8509317 -83.72363281 344.35742188 C-85.47778059 343.38728847 -87.25060503 342.45117739 -89.0234375 341.515625 C-103.77476762 333.49355334 -116.47830948 323.01531275 -128.5 311.375 C-129.25925781 310.65570313 -130.01851563 309.93640625 -130.80078125 309.1953125 C-135.86673952 304.29658004 -140.27996654 299.01429338 -144.5 293.375 C-145.10884033 292.56409912 -145.10884033 292.56409912 -145.72998047 291.73681641 C-161.45373264 270.54496224 -172.85369399 246.17548162 -178.5 220.375 C-178.72429687 219.38814209 -178.72429687 219.38814209 -178.953125 218.38134766 C-184.41718298 193.29260732 -183.54459604 164.21574219 -177.5 139.375 C-177.29101074 138.51213379 -177.08202148 137.64926758 -176.86669922 136.76025391 C-168.77984608 104.69754706 -151.28437362 76.97895541 -128.5 53.375 C-127.86191406 52.67375 -127.22382813 51.9725 -126.56640625 51.25 C-94.96073825 17.46220347 -45.44116794 -0.12285965 0 0 Z M-7.25 46.8125 C-14.97623637 52.20750352 -22.96271616 56.41988612 -31.5 60.375 C-32.69367188 60.93574219 -33.88734375 61.49648437 -35.1171875 62.07421875 C-57.63941954 72.41298426 -80.79171514 79.69103561 -105.07421875 84.484375 C-105.94111328 84.65791504 -106.80800781 84.83145508 -107.70117188 85.01025391 C-109.29469489 85.32413913 -110.89096605 85.62455347 -112.49023438 85.90771484 C-118.17170183 86.99980765 -122.52035298 88.98577083 -126.3125 93.5625 C-128.98507587 99.89228496 -128.65683259 107.26673627 -128.66796875 114.0546875 C-128.67224884 114.85646927 -128.67652893 115.65825104 -128.68093872 116.48432922 C-128.69089139 119.07294363 -128.69099359 121.66137012 -128.6875 124.25 C-128.68656342 125.14071198 -128.68562683 126.03142395 -128.68466187 126.9491272 C-128.53887164 191.05301935 -115.27999023 253.46974514 -68.76953125 300.11328125 C-51.25342278 316.80794463 -23.06211935 338.56458193 1.5 342.375 C4.65319425 341.6743736 7.45401794 340.42162871 10.375 339.0625 C11.61358765 338.51142578 11.61358765 338.51142578 12.87719727 337.94921875 C46.51625438 322.73438019 77.04140132 300.17009588 96.5 268.375 C96.88929688 267.74078125 97.27859375 267.1065625 97.6796875 266.453125 C103.68428489 256.53949442 108.37077995 246.24776541 112.64941406 235.48779297 C113.36930618 233.69963384 114.12952692 231.92779146 114.8984375 230.16015625 C128.42801791 198.05971866 129.96800905 161.28898447 130.05594635 126.95780945 C130.06247996 124.88137023 130.07533578 122.80504062 130.08905029 120.7286377 C130.1112165 116.8083976 130.0925261 112.8889821 130.06640625 108.96875 C130.07113449 107.78597473 130.07586273 106.60319946 130.08073425 105.38458252 C129.9923919 99.15996727 129.89815808 94.98779713 125.5 90.375 C123.64871549 89.14807029 123.64871549 89.14807029 121.5546875 88.67578125 C120.76545898 88.45486816 119.97623047 88.23395508 119.16308594 88.00634766 C113.99825854 86.78190288 108.82070533 85.64827956 103.625 84.5625 C93.0835014 82.28618668 82.8434658 79.61849863 72.64697266 76.11181641 C70.52415198 75.38328868 68.39411018 74.68041403 66.26171875 73.98046875 C55.79972044 70.48342872 45.82357386 66.07916997 35.82250977 61.44116211 C33.47360404 60.36288278 31.11219085 59.31728654 28.74609375 58.27734375 C20.47732515 54.61316557 12.94087188 50.20319599 5.69140625 44.79296875 C0.11053711 41.18181813 -2.18827561 43.10547903 -7.25 46.8125 Z " fill="#F9FAFB" transform="translate(534.5,133.625)"/>
<path d="M0 0 C1.92416888 0.36211789 3.86041016 0.65851498 5.796875 0.94775391 C44.24319687 7.25535359 82.29652809 28.5686513 110.109375 55.39697266 C110.99641113 56.24533691 110.99641113 56.24533691 111.90136719 57.11083984 C148.42159191 92.19113456 172.27747696 137.88483586 178.109375 188.39697266 C178.30660156 190.04439453 178.30660156 190.04439453 178.5078125 191.72509766 C184.09494036 249.40841768 166.41132553 304.56999175 130.109375 349.39697266 C127.86773784 351.9917699 125.58625671 354.53649635 123.26171875 357.05712891 C121.14220886 359.3612785 119.09502158 361.716927 117.046875 364.08447266 C113.33646886 368.24418579 109.41042464 371.85901247 105.109375 375.39697266 C104.61115234 375.81817383 104.11292969 376.239375 103.59960938 376.67333984 C88.82756387 389.14539001 72.7027267 399.38106685 55.109375 407.39697266 C54.03598877 407.89124756 54.03598877 407.89124756 52.94091797 408.39550781 C32.40563737 417.7484313 11.45034167 423.39572458 -10.890625 426.39697266 C-11.59131104 426.50009766 -12.29199707 426.60322266 -13.01391602 426.70947266 C-20.65837489 427.72402342 -28.38011527 427.6407723 -36.078125 427.64697266 C-36.83217621 427.6476474 -37.58622742 427.64832214 -38.36312866 427.64901733 C-51.07596689 427.63101215 -63.39242791 426.88110142 -75.890625 424.39697266 C-76.75896973 424.22536621 -77.62731445 424.05375977 -78.52197266 423.87695312 C-104.97656013 418.46215829 -131.68061364 408.65457803 -153.59057617 392.61083984 C-156.49767261 390.55235655 -158.36366643 389.40431935 -161.97265625 389.35400391 C-168.79485637 391.79246098 -173.62427498 396.73871178 -178.765625 401.64697266 C-179.82136719 402.64579468 -179.82136719 402.64579468 -180.8984375 403.66479492 C-185.64013494 408.16446823 -190.33579199 412.70729261 -194.890625 417.39697266 C-198.43246554 415.89850166 -200.61839062 413.84781381 -203.265625 411.08447266 C-205.76199963 408.52283333 -208.2013806 406.04350321 -211.015625 403.83447266 C-213.36846709 401.83967175 -215.16800202 399.98200777 -217.140625 397.64697266 C-219.85683657 394.45001567 -222.73945752 391.66618044 -225.890625 388.89697266 C-229.65493047 385.58256148 -232.98883801 382.15641294 -236.21875 378.32666016 C-238.94138661 375.18417772 -241.91163452 372.294471 -244.890625 369.39697266 C-243.26301037 365.26161668 -240.25810268 362.51033067 -237.1484375 359.45947266 C-236.58365692 358.89752197 -236.01887634 358.33557129 -235.4369812 357.7565918 C-233.63451577 355.96528935 -231.82522815 354.18106132 -230.015625 352.39697266 C-228.80552958 351.19691549 -227.59588911 349.99639939 -226.38671875 348.79541016 C-224.16052339 346.58551816 -221.93174333 344.37830842 -219.69970703 342.17431641 C-217.42233541 339.92267556 -215.15209507 337.66456032 -212.890625 335.39697266 C-213.35210937 334.81173828 -213.81359375 334.22650391 -214.2890625 333.62353516 C-242.12933937 296.98000869 -254.89852585 247.96540029 -252.890625 202.39697266 C-252.85340332 201.55134766 -252.81618164 200.70572266 -252.77783203 199.83447266 C-250.19122248 150.71731552 -229.03885359 101.81386609 -194.890625 66.39697266 C-194.35598633 65.83655273 -193.82134766 65.27613281 -193.27050781 64.69873047 C-185.22138661 56.29599604 -176.956281 48.56825222 -167.58935547 41.65576172 C-165.93552662 40.43024555 -164.30528156 39.17800802 -162.67578125 37.92041016 C-117.6059428 3.79011545 -55.48528199 -10.65460911 0 0 Z M-72.890625 32.39697266 C-74.20281006 32.69498779 -74.20281006 32.69498779 -75.54150391 32.99902344 C-124.55824941 44.51360293 -166.06285328 74.87925972 -192.6953125 117.4375 C-210.00395201 145.81150749 -218.35331604 177.3812219 -218.203125 210.52197266 C-218.20163452 211.33579407 -218.20014404 212.14961548 -218.1986084 212.98809814 C-218.15796803 225.33882748 -217.62359069 237.3082833 -214.890625 249.39697266 C-214.62378906 250.64607422 -214.35695313 251.89517578 -214.08203125 253.18212891 C-207.99544228 278.47528752 -196.31207444 303.21646756 -179.890625 323.39697266 C-179.44364258 323.95529785 -178.99666016 324.51362305 -178.53613281 325.08886719 C-148.93531163 361.90342341 -106.74415875 386.79028094 -59.53515625 392.69140625 C-51.49964633 393.52271736 -43.4634635 393.638917 -35.390625 393.64697266 C-34.68541718 393.64797974 -33.98020935 393.64898682 -33.25363159 393.65002441 C-21.87391292 393.63907231 -11.02266875 392.81950361 0.109375 390.39697266 C1.50366489 390.12619563 2.89819773 389.85666664 4.29296875 389.58837891 C21.78937722 386.03448462 38.50607027 378.97274247 54.109375 370.39697266 C54.75100586 370.04521973 55.39263672 369.6934668 56.05371094 369.33105469 C65.26385545 364.21047209 73.22071067 358.38038043 81.109375 351.39697266 C81.77839844 350.83751953 82.44742187 350.27806641 83.13671875 349.70166016 C118.46992791 319.9709683 140.96057673 277.0684621 145.59350586 231.07250977 C146.9853242 214.55281242 146.93420256 197.75218445 144.109375 181.39697266 C143.93792969 180.25615234 143.76648438 179.11533203 143.58984375 177.93994141 C135.8304513 132.53498044 108.38396674 90.58794382 71.30517578 63.60083008 C57.57379375 53.93934302 42.84858501 46.19381831 27.109375 40.39697266 C26.31144531 40.09662109 25.51351562 39.79626953 24.69140625 39.48681641 C22.51354617 38.71592976 20.32631696 38.04800662 18.109375 37.39697266 C17.51141113 37.21424805 16.91344727 37.03152344 16.29736328 36.84326172 C-12.20960442 28.17692722 -43.62176729 25.69542182 -72.890625 32.39697266 Z " fill="#224987" transform="translate(570.890625,104.60302734375)"/>
<path d="M0 0 C5.88849046 4.52536398 11.09438676 9.62983482 16.31980896 14.89715576 C17.26968384 15.84822559 18.21993182 16.79892292 19.17053223 17.74926758 C21.14601993 19.72630755 23.11813818 21.70662477 25.08763123 23.68963623 C27.61332386 26.2324456 30.14567843 28.76849342 32.68031979 31.30237961 C34.63567252 33.25800375 36.5884129 35.21621844 38.54026985 37.17533112 C39.92695537 38.56674134 41.31513751 39.95665949 42.70333862 41.34655762 C43.53833389 42.18793274 44.37332916 43.02930786 45.23362732 43.8961792 C45.97116745 44.63753113 46.70870758 45.37888306 47.46859741 46.1427002 C50.34280558 49.24312863 50.38018328 51.45145319 50.47996521 55.60028076 C50.53603943 57.1046167 50.53603943 57.1046167 50.59324646 58.63934326 C49.67541759 65.83040612 45.66303028 71.0778873 40.60447693 76.02410889 C40.06090546 76.57147705 39.51733398 77.11884521 38.95729065 77.68280029 C37.18016219 79.46726526 35.38918269 81.23704146 33.59715271 83.00653076 C32.35139693 84.24989957 31.10638259 85.49401167 29.86207581 86.73883057 C27.26412114 89.33366991 24.65962447 91.92168868 22.04978943 94.50457764 C18.69908235 97.8211293 15.36187066 101.15087352 12.02895927 104.48529816 C9.46457333 107.04914168 6.89502004 109.60775123 4.32365799 112.16459656 C3.09043028 113.39144928 1.85841952 114.6195265 0.62763596 115.84883118 C-1.08604631 117.55819796 -2.80613588 119.26082951 -4.52833557 120.96160889 C-5.0385022 121.47268188 -5.54866882 121.98375488 -6.07429504 122.51031494 C-9.60356468 125.97528076 -9.60356468 125.97528076 -11.83253479 125.97528076 C-12.2162323 126.85470337 -12.2162323 126.85470337 -12.60768127 127.75189209 C-13.9517793 130.19173676 -15.38302535 131.66868683 -17.43019104 133.54949951 C-18.14457336 134.21280273 -18.85895569 134.87610596 -19.59498596 135.55950928 C-20.35400208 136.25358887 -21.11301819 136.94766846 -21.89503479 137.66278076 C-26.59976167 141.99745649 -31.21122886 146.30300923 -35.52003479 151.03778076 C-44.24382619 159.86281538 -58.06812853 164.97553279 -70.33253479 165.28778076 C-83.7093213 164.79515123 -94.9124051 161.06029177 -104.77003479 151.60028076 C-114.97362807 140.55418896 -119.2252085 129.31841034 -119.03956604 114.31512451 C-118.05407706 98.41714185 -107.3284418 87.91153011 -96.42359924 77.50384521 C-95.01027263 76.14603673 -93.62436242 74.75981927 -92.24269104 73.36981201 C-89.69639313 70.8400217 -87.06269494 68.43904489 -84.39503479 66.03778076 C-79.05676808 61.19797681 -73.94377002 56.16087311 -68.90504456 51.01068115 C-66.01282961 48.07397717 -63.06691485 45.27375639 -59.94190979 42.58465576 C-55.51588253 38.76208109 -51.42846038 34.64581338 -47.33253479 30.47528076 C-42.60004165 25.65658556 -37.81216408 21.02646482 -32.68995667 16.62322998 C-30.42984597 14.61800558 -28.34998345 12.48302274 -26.26930237 10.2946167 C-19.70435796 3.40951272 -10.24829063 -5.73065277 0 0 Z " fill="#1D3D7B" transform="translate(313.83253479003906,479.02471923828125)"/>
<path d="M0 0 C62.28703704 0 62.28703704 0 74 10 C76.43938818 12.47134523 78.26756542 14.99530877 80 18 C80.4125 18.70511719 80.825 19.41023437 81.25 20.13671875 C85.36627397 28.55507072 85.45554095 39.09614768 83.234375 48.10546875 C82.30923199 50.53213355 81.27207551 52.73853243 80 55 C79.4225 56.051875 78.845 57.10375 78.25 58.1875 C72.22760456 65.7154943 66.16375933 69.21390026 57 72 C55.65228516 72.51445679 55.65228516 72.51445679 54.27734375 73.03930664 C50.63771247 74.10619796 47.63950686 74.22768809 43.8515625 74.1953125 C42.64838379 74.19031738 41.44520508 74.18532227 40.20556641 74.18017578 C38.69397949 74.16196777 37.18239258 74.14375977 35.625 74.125 C28.385625 74.063125 28.385625 74.063125 21 74 C21 84.89 21 95.78 21 107 C14.07 107 7.14 107 0 107 C0 71.69 0 36.38 0 0 Z " fill="#11295B" transform="translate(149,714)"/>
<path d="M0 0 C1.98 0.99 1.98 0.99 4 2 C3.67 2.33 3.34 2.66 3 3 C2.74530358 5.69475105 2.56676559 8.36039802 2.4375 11.0625 C2.3950415 11.91489258 2.35258301 12.76728516 2.30883789 13.64550781 C1.71450074 27.41690936 1.91653567 41.21939667 2 55 C-3.53581539 56.47126893 -8.97090946 57.5514529 -14.6484375 58.2890625 C-15.89411751 58.45149193 -15.89411751 58.45149193 -17.16496277 58.61720276 C-19.90035128 58.96473995 -22.63714237 59.29750081 -25.375 59.625 C-26.78832108 59.79607773 -26.78832108 59.79607773 -28.23019409 59.97061157 C-46.89996875 62.16881531 -65.40795204 62.40389336 -84.18701172 62.07861328 C-85.22255692 62.06281723 -86.25810211 62.04702118 -87.32502747 62.03074646 C-89.27045425 61.99804863 -91.21574744 61.95534646 -93.16069031 61.90101624 C-94.02104385 61.8849382 -94.8813974 61.86886017 -95.76782227 61.85229492 C-96.51669205 61.83277267 -97.26556183 61.81325043 -98.03712463 61.7931366 C-100.32390635 61.88050863 -100.32390635 61.88050863 -103 64 C-104.05400881 69.58311972 -104.17105698 75.13879789 -104.203125 80.80859375 C-104.20991272 81.6411821 -104.21670044 82.47377045 -104.22369385 83.33158875 C-104.24065052 86.03359736 -104.24689659 88.73544158 -104.25 91.4375 C-104.25233643 92.35875671 -104.25467285 93.28001343 -104.25708008 94.22918701 C-104.2739668 111.95602282 -103.05144765 129.39901567 -101 147 C-101.88840576 146.86287598 -102.77681152 146.72575195 -103.69213867 146.58447266 C-104.8597876 146.4044873 -106.02743652 146.22450195 -107.23046875 146.0390625 C-108.38699951 145.86068848 -109.54353027 145.68231445 -110.73510742 145.49853516 C-114.15397851 144.97648814 -117.57473532 144.47794391 -121 144 C-121 145.98 -121 147.96 -121 150 C-121.66 149.67 -122.32 149.34 -123 149 C-123.62459571 146.35796014 -124.10114482 143.80457914 -124.5 141.125 C-124.62673096 140.27768311 -124.75346191 139.43036621 -124.8840332 138.55737305 C-127.55053016 119.7061346 -128.18167524 100.88421872 -128.1875 81.875 C-128.18849701 81.00283844 -128.18949402 80.13067688 -128.19052124 79.23208618 C-128.19019472 76.71453547 -128.18111578 74.19720127 -128.16796875 71.6796875 C-128.16676025 70.93687027 -128.16555176 70.19405304 -128.16430664 69.4287262 C-128.03111825 54.29636955 -128.03111825 54.29636955 -124.6875 50.0625 C-124.27886719 49.51722656 -123.87023437 48.97195312 -123.44921875 48.41015625 C-119.94286216 44.99831062 -115.6269175 44.38033052 -110.953125 43.44921875 C-109.53513139 43.1596269 -108.11716354 42.86990892 -106.69921875 42.58007812 C-104.49550544 42.13657416 -102.29131054 41.69569964 -100.08642578 41.25805664 C-65.16700308 34.29086474 -28.85176277 21.22692772 0 0 Z " fill="#0AB0DE" transform="translate(534,176)"/>
<path d="M0 0 C5.06985176 2.58226745 8.64981141 6.56643761 11.98828125 11.109375 C12.40078125 10.73425781 12.81328125 10.35914063 13.23828125 9.97265625 C23.54839874 0.83623517 31.98634386 -1.9331772 45.73242188 -1.14697266 C52.42389387 -0.38657811 57.70018658 2.61547288 62.203125 7.5234375 C66.71449327 13.63085222 69.24946783 19.34239458 69.21533203 27.02294922 C69.21510544 28.73404373 69.21510544 28.73404373 69.21487427 30.47970581 C69.2045517 31.69554352 69.19422913 32.91138123 69.18359375 34.1640625 C69.18076385 35.42074738 69.17793396 36.67743225 69.17501831 37.97219849 C69.16574248 41.29638364 69.14780506 44.62028924 69.12561035 47.94439697 C69.10506937 51.34311521 69.09599903 54.74186244 69.0859375 58.140625 C69.06391501 64.79696162 69.02940433 71.45313008 68.98828125 78.109375 C62.05828125 78.109375 55.12828125 78.109375 47.98828125 78.109375 C47.97893555 76.63138428 47.96958984 75.15339355 47.95996094 73.63061523 C47.91999465 68.13063771 47.85421625 62.63121562 47.78076172 57.1315918 C47.75259078 54.7543859 47.73135705 52.37708702 47.71728516 49.99975586 C47.69580276 46.57617721 47.64912252 43.15371211 47.59765625 39.73046875 C47.59642761 38.67290878 47.59519897 37.61534882 47.59393311 36.52574158 C47.46921762 30.19776831 46.78128053 26.24569209 42.98828125 21.109375 C38.64197757 18.11525469 35.20469821 17.56027848 29.98828125 18.109375 C25.39739484 19.66560768 21.97615962 21.23619933 18.98828125 25.109375 C16.55553244 30.64715191 16.64303934 36.03597149 16.57421875 41.9765625 C16.5548526 43.01128693 16.53548645 44.04601135 16.51553345 45.11209106 C16.45596283 48.40276967 16.4094422 51.69348368 16.36328125 54.984375 C16.32508077 57.22136905 16.28602784 59.45834872 16.24609375 61.6953125 C16.14868228 67.16658998 16.068934 72.63772231 15.98828125 78.109375 C9.05828125 78.109375 2.12828125 78.109375 -5.01171875 78.109375 C-5.02106445 76.63138428 -5.03041016 75.15339355 -5.04003906 73.63061523 C-5.08000535 68.13063771 -5.14578375 62.63121562 -5.21923828 57.1315918 C-5.24740922 54.7543859 -5.26864295 52.37708702 -5.28271484 49.99975586 C-5.30419724 46.57617721 -5.35087748 43.15371211 -5.40234375 39.73046875 C-5.40357239 38.67290878 -5.40480103 37.61534882 -5.40606689 36.52574158 C-5.53107745 30.18279658 -6.26646706 26.28506839 -10.01171875 21.109375 C-13.72804779 17.72095735 -17.5955457 17.52966091 -22.4453125 17.703125 C-26.70163975 18.37688152 -30.03290812 19.9874774 -33.01171875 23.109375 C-37.12240416 29.28241793 -37.61203788 34.89867625 -37.62109375 42.171875 C-37.63763 43.20376953 -37.65416626 44.23566406 -37.67120361 45.29882812 C-37.71948136 48.56907219 -37.74101009 51.8388519 -37.76171875 55.109375 C-37.78989526 57.33726269 -37.81982503 59.56512894 -37.8515625 61.79296875 C-37.92851054 67.2319803 -37.96922012 72.66955077 -38.01171875 78.109375 C-44.94171875 78.109375 -51.87171875 78.109375 -59.01171875 78.109375 C-59.01171875 52.369375 -59.01171875 26.629375 -59.01171875 0.109375 C-52.08171875 0.109375 -45.15171875 0.109375 -38.01171875 0.109375 C-37.68171875 3.409375 -37.35171875 6.709375 -37.01171875 10.109375 C-36.57859375 9.408125 -36.14546875 8.706875 -35.69921875 7.984375 C-26.41503613 -1.94754129 -12.7790038 -3.77900501 0 0 Z " fill="#132B5C" transform="translate(448.01171875,742.890625)"/>
<path d="M0 0 C6.31060047 5.10067331 10.40544263 11.44655682 11.703125 19.4921875 C12.52315601 27.69249762 9.68682982 35.47828715 4.578125 41.8671875 C-2.16839363 48.74099894 -8.82221643 50.97227638 -18.296875 51.1171875 C-26.40762681 51.03449291 -32.83133018 49.42067347 -39.05078125 43.94921875 C-40.296875 42.4921875 -40.296875 42.4921875 -40.296875 40.4921875 C-41.03510498 40.94432617 -41.77333496 41.39646484 -42.53393555 41.86230469 C-56.41196468 50.35198812 -70.31698471 58.75257603 -84.484375 66.75390625 C-90.0933528 69.92602904 -95.63159597 73.2170469 -101.1472168 76.54858398 C-106.07965916 79.4921875 -106.07965916 79.4921875 -108.296875 79.4921875 C-108.25046875 80.554375 -108.2040625 81.6165625 -108.15625 82.7109375 C-107.70440865 97.41142188 -107.70440865 97.41142188 -112.296875 103.4921875 C-112.89371094 104.3171875 -113.49054688 105.1421875 -114.10546875 105.9921875 C-118.80975434 111.35893042 -125.1328708 114.06409741 -132.13671875 115.01171875 C-141.88319322 115.27461067 -147.87736283 113.78134766 -155.046875 107.3046875 C-160.15051351 101.79229075 -162.48099837 96.18438741 -162.921875 88.6796875 C-162.60879641 80.76182905 -159.64508251 73.96777247 -154.140625 68.25390625 C-147.76031461 62.97703995 -141.31098345 60.91360484 -133.05859375 61.02734375 C-128.57509751 61.78199163 -124.89993273 63.88388484 -120.9609375 66.08203125 C-117.77557069 67.83474371 -117.77557069 67.83474371 -114.296875 68.4921875 C-111.82789997 67.36073381 -111.82789997 67.36073381 -109.171875 65.4921875 C-103.69604265 61.94414597 -98.12003943 58.61724223 -92.45751953 55.375 C-90.2453441 54.10733044 -88.03805044 52.83110788 -85.83544922 51.546875 C-80.46950255 48.42241911 -75.09826678 45.35758506 -69.58914185 42.49169922 C-67.07834189 41.17741067 -64.59086332 39.82224995 -62.1050415 38.46142578 C-60.34096046 37.51581879 -58.54724237 36.62617118 -56.75341797 35.73828125 C-51.84041866 33.0201708 -48.86188926 31.35657316 -47.18579102 25.82592773 C-46.77007502 23.17745357 -46.62788138 20.66845134 -46.51391602 17.97436523 C-46.05943047 10.68265841 -42.14388414 6.03629056 -37.046875 1.1171875 C-26.04230881 -8.01387403 -11.83645572 -7.77019032 0 0 Z " fill="#F9FCFC" transform="translate(621.296875,237.5078125)"/>
<path d="M0 0 C10.45846576 5.40793496 15.86729368 12.9925756 19.80566406 23.90136719 C21.32564465 30.33205428 20.80566406 36.07556318 20.80566406 42.90136719 C1.99566406 42.90136719 -16.81433594 42.90136719 -36.19433594 42.90136719 C-33.30925746 51.55660263 -32.27571209 54.27679501 -25.19433594 58.90136719 C-17.99225197 61.91314776 -11.10703241 61.8620676 -3.88183594 59.08886719 C-1.28403356 57.9970372 0.67658531 57.00872714 2.84863281 55.20214844 C4.80566406 53.90136719 4.80566406 53.90136719 6.79003906 53.89746094 C9.68956697 55.34160565 11.10772727 57.39908374 13.05566406 59.96386719 C13.76207031 60.88296875 14.46847656 61.80207031 15.19628906 62.74902344 C15.72738281 63.45929688 16.25847656 64.16957031 16.80566406 64.90136719 C14.6357472 70.39137543 9.84608557 72.33428556 4.80566406 74.90136719 C-6.70250728 79.67349566 -19.19837101 80.39809894 -31.19433594 76.90136719 C-43.24029247 71.81312914 -49.11005133 64.85544569 -54.81152344 53.40136719 C-58.5670448 43.89586678 -58.57969423 31.8891759 -55.23339844 22.24121094 C-50.24746326 11.01348472 -42.39857219 3.64162099 -31.19433594 -1.09863281 C-22.08254013 -4.13589808 -8.81409067 -3.84439494 0 0 Z " fill="#11295A" transform="translate(296.1943359375,744.0986328125)"/>
<path d="M0 0 C7.87093062 5.50314654 11.56333849 12.56501548 14.55078125 21.52734375 C14.55078125 27.46734375 14.55078125 33.40734375 14.55078125 39.52734375 C-4.25921875 39.52734375 -23.06921875 39.52734375 -42.44921875 39.52734375 C-36.89974532 51.66339192 -36.89974532 51.66339192 -26.44921875 57.52734375 C-16.92058352 59.11125937 -8.775023 56.47880447 -0.82421875 51.27734375 C-0.04046875 50.69984375 0.74328125 50.12234375 1.55078125 49.52734375 C3.06260425 51.26714006 4.55989623 53.01957191 6.05078125 54.77734375 C6.88609375 55.751875 7.72140625 56.72640625 8.58203125 57.73046875 C10.55078125 60.52734375 10.55078125 60.52734375 10.55078125 64.52734375 C2.57330946 72.40632824 -9.86187729 75.45753257 -20.69921875 75.71484375 C-31.7367424 75.56548619 -42.62113611 72.78014615 -51.01171875 65.15234375 C-60.48491533 54.44351284 -63.37676079 42.63399107 -62.85546875 28.68359375 C-62.10817254 18.44563564 -56.67773915 9.60474525 -49.44921875 2.52734375 C-35.37022735 -8.10913565 -15.10688194 -9.08340429 0 0 Z " fill="#2DB455" transform="translate(671.44921875,747.47265625)"/>
<path d="M0 0 C6.55728144 3.74701797 10.83378877 8.68679737 13.15234375 15.90625 C14.86746591 23.27702291 13.19862578 28.48271571 9.625 34.9375 C6.25947717 40.159863 2.07503512 42.21248244 -3.375 44.9375 C-12.52194781 45.72895408 -19.8346493 45.64501493 -27.375 39.9375 C-28.70809318 38.93717988 -30.04139734 37.93714079 -31.375 36.9375 C-43.56783586 44.13682981 -55.75578029 51.34437932 -67.9375 58.5625 C-68.52294586 58.90933838 -69.10839172 59.25617676 -69.71157837 59.61352539 C-71.39244894 60.60937808 -73.07318001 61.60546623 -74.75390625 62.6015625 C-75.7188501 63.17342285 -76.68379395 63.7452832 -77.67797852 64.33447266 C-78.56799561 64.86347168 -79.4580127 65.3924707 -80.375 65.9375 C-81.76887939 66.6948645 -81.76887939 66.6948645 -83.19091797 67.4675293 C-85.69213719 68.77800915 -85.69213719 68.77800915 -85.94140625 71.79296875 C-85.93947266 73.44232422 -85.93947266 73.44232422 -85.9375 75.125 C-86.23562971 82.36068852 -87.5121219 87.14996079 -92.75 92.25 C-93.61625 92.806875 -94.4825 93.36375 -95.375 93.9375 C-96.2 94.515 -97.025 95.0925 -97.875 95.6875 C-103.90463468 97.84094096 -110.74049937 98.2960833 -116.8203125 96.0234375 C-122.35608877 92.76090776 -126.97004019 87.95515052 -129.375 81.9375 C-130.23918098 74.55102679 -130.49330821 67.66572219 -125.87109375 61.55078125 C-121.95496663 57.32790788 -117.73764241 53.33401373 -111.82421875 52.63671875 C-103.35647944 52.60078775 -98.59532265 54.5685929 -91.375 58.9375 C-90.79758057 58.59605957 -90.22016113 58.25461914 -89.62524414 57.90283203 C-69.11911552 45.77828138 -69.11911552 45.77828138 -62.60717773 41.95483398 C-61.24697559 41.15332979 -59.88968556 40.34686236 -58.53540039 39.53540039 C-54.93921695 37.39001167 -51.31799394 35.37748278 -47.58203125 33.484375 C-39.49495624 29.76542772 -39.49495624 29.76542772 -34.23046875 23.14453125 C-34.00516566 20.32267918 -34.00516566 20.32267918 -34.23828125 17.54296875 C-34.46051131 13.30789874 -32.82603829 10.30398632 -30.375 6.9375 C-22.04089976 -1.9629954 -11.4844756 -5.25648959 0 0 Z " fill="#F9FCFB" transform="translate(602.375,335.0625)"/>
<path d="M0 0 C0.79124268 0.01208496 1.58248535 0.02416992 2.39770508 0.03662109 C8.3267957 0.23835322 13.09394288 1.0807779 18.0625 4.5 C18.69285156 4.9125 19.32320312 5.325 19.97265625 5.75 C25.10921029 9.58878348 27.97301027 14.49477897 30.0625 20.5 C30.69851905 25.14447223 30.64827473 29.70225037 30.55078125 34.3828125 C30.54370651 35.67822968 30.53663177 36.97364685 30.52934265 38.30831909 C30.51043782 41.71832354 30.46148725 45.12722822 30.40582275 48.5368042 C30.35426754 52.02959321 30.3317521 55.52256351 30.30664062 59.015625 C30.25334604 65.84424172 30.16555168 72.67195451 30.0625 79.5 C23.1325 79.5 16.2025 79.5 9.0625 79.5 C9.0531543 78.02200928 9.04380859 76.54401855 9.03417969 75.02124023 C8.9942134 69.52126271 8.928435 64.02184062 8.85498047 58.5222168 C8.82680953 56.1450109 8.8055758 53.76771202 8.79150391 51.39038086 C8.77002151 47.96680221 8.72334127 44.54433711 8.671875 41.12109375 C8.67064636 40.06353378 8.66941772 39.00597382 8.66815186 37.91636658 C8.5433943 31.5862587 7.81826633 27.65872422 4.0625 22.5 C-0.27024948 19.4358081 -5.77639118 18.92654346 -10.9375 19.5 C-16.70795108 21.57736239 -20.12166566 25.18369633 -23.05224609 30.53588867 C-24.38838521 35.00970694 -24.29681692 39.40435192 -24.3515625 44.05078125 C-24.37092865 45.06472458 -24.3902948 46.07866791 -24.4102478 47.12333679 C-24.46989426 50.35297303 -24.51636951 53.5826452 -24.5625 56.8125 C-24.60069349 59.00587468 -24.63974602 61.19923458 -24.6796875 63.39257812 C-24.77719601 68.76164065 -24.85688401 74.13055101 -24.9375 79.5 C-31.8675 79.5 -38.7975 79.5 -45.9375 79.5 C-45.9375 53.76 -45.9375 28.02 -45.9375 1.5 C-39.0075 1.5 -32.0775 1.5 -24.9375 1.5 C-24.6075 4.8 -24.2775 8.1 -23.9375 11.5 C-22.9475 10.4275 -21.9575 9.355 -20.9375 8.25 C-15.07649521 1.90057814 -8.44441052 -0.20703703 0 0 Z " fill="#2EB856" transform="translate(744.9375,741.5)"/>
<path d="M0 0 C0.91257568 0.00209473 1.82515137 0.00418945 2.76538086 0.00634766 C12.41629702 0.22891081 20.25065487 3.10615142 28.8125 7.5 C28.12488981 11.15564909 26.55800455 14.01867272 24.75 17.25 C24.20214844 18.23484375 23.65429688 19.2196875 23.08984375 20.234375 C22.45755859 21.35585938 22.45755859 21.35585938 21.8125 22.5 C19.35829208 21.5390932 16.94000014 20.560546 14.55859375 19.4296875 C8.07526456 16.46776046 1.91448053 15.38497901 -5.1875 16.5 C-7.99844184 17.72729855 -7.99844184 17.72729855 -10.1875 19.5 C-11.1043463 22.45625267 -11.1043463 22.45625267 -10.1875 25.5 C-4.24057511 30.54984639 3.41602609 32.05264193 10.78320312 34.1484375 C18.67395183 36.5855049 25.65433865 40.20955665 30.02856445 47.53710938 C32.11070887 52.75057594 31.4702823 59.0184808 30.8125 64.5 C29.35030802 67.83783135 27.47194858 70.04183996 24.8125 72.5 C24.09320312 73.23283203 24.09320312 73.23283203 23.359375 73.98046875 C15.93632986 80.93447533 5.87438705 81.83131211 -3.83984375 81.7109375 C-15.8771124 80.95246316 -25.25940059 77.11873294 -35.1875 70.5 C-33.81462658 66.80123909 -32.12394547 63.5485524 -30.0625 60.1875 C-29.52367187 59.30449219 -28.98484375 58.42148437 -28.4296875 57.51171875 C-28.01976562 56.84785156 -27.60984375 56.18398438 -27.1875 55.5 C-26.21167969 55.99371094 -25.23585938 56.48742187 -24.23046875 56.99609375 C-22.94536595 57.64333531 -21.66020675 58.29046488 -20.375 58.9375 C-19.73240234 59.26298828 -19.08980469 59.58847656 -18.42773438 59.92382812 C-12.89478957 62.70463458 -9.01164707 63.67692557 -2.8125 63.75 C-1.50539063 63.77578125 -0.19828125 63.8015625 1.1484375 63.828125 C4.96437327 63.48639941 6.87191852 62.92330902 9.8125 60.5 C10.22996608 57.37364791 10.22996608 57.37364791 9.8125 54.5 C3.80459511 51.28223064 -2.11951401 49.16656803 -8.625 47.1875 C-17.67740444 44.28671217 -24.91057967 41.56433143 -30.25 33.3125 C-31.80857047 26.97431341 -32.75193232 19.72102675 -29.6875 13.6875 C-22.30213303 3.08885055 -12.47518619 -0.08542276 0 0 Z " fill="#2EB556" transform="translate(820.1875,741.5)"/>
<path d="M0 0 C6.93 0 13.86 0 21 0 C21 28.71 21 57.42 21 87 C36.51 87 52.02 87 68 87 C68 93.27 68 99.54 68 106 C45.56 106 23.12 106 0 106 C0 71.02 0 36.04 0 0 Z " fill="#2CB755" transform="translate(536,715)"/>
<path d="M0 0 C3.46272343 4.11926427 5.33360274 8.89834677 7.48242188 13.77539062 C8.96662535 17.5607033 8.96662535 17.5607033 12 20 C12.350625 21.216875 12.70125 22.43375 13.0625 23.6875 C16.17611793 33.61612861 23.1911659 42.31823845 30 50 C30 50.66 30 51.32 30 52 C30.66 52 31.32 52 32 52 C34.43737632 54.03919108 36.35636144 56.28082614 38 59 C37.77153476 64.36893308 33.92727966 67.45873449 30.23046875 70.98046875 C27.45314375 73.49513954 24.63662232 75.95681867 21.76171875 78.359375 C19.90053838 80.09262501 18.4650122 81.92644427 17 84 C21.099274 88.16258325 25.34248145 92.15196033 29.625 96.125 C30.95098468 97.35627149 32.27652207 98.5880249 33.6015625 99.8203125 C34.18244629 100.35930176 34.76333008 100.89829102 35.36181641 101.45361328 C36.93780066 102.94128605 38.47573153 104.45954665 40 106 C40.556875 105.43152344 41.11375 104.86304688 41.6875 104.27734375 C46.07779721 99.83513424 50.52470352 95.55574691 55.28515625 91.51171875 C57.16562242 89.91250655 57.16562242 89.91250655 59.25 87.5 C59.8275 87.005 60.405 86.51 61 86 C64.8914311 86.33986298 67.20940855 88.56308774 70.125 91 C73.37869505 93.78159708 73.37869505 93.78159708 77 96 C77 96.99 77 97.98 77 99 C77.7734375 99.37125 77.7734375 99.37125 78.5625 99.75 C81.77184151 101.39581616 84.87585664 103.1976096 88 105 C86.515 105.495 86.515 105.495 85 106 C84.071875 105.34 83.14375 104.68 82.1875 104 C79.20363444 101.73425446 79.20363444 101.73425446 76 102 C69.13334317 104.28888561 64.25885386 109.34889543 59.125 114.25 C58.42117188 114.91588135 57.71734375 115.5817627 56.9921875 116.26782227 C52.25049006 120.76749557 47.55483301 125.31031996 43 130 C39.45815946 128.501529 37.27223438 126.45084115 34.625 123.6875 C32.12862537 121.12586067 29.6892444 118.64653055 26.875 116.4375 C24.52215791 114.44269909 22.72262298 112.58503511 20.75 110.25 C18.03378843 107.05304302 15.15116748 104.26920778 12 101.5 C8.23569453 98.18558883 4.90178699 94.75944028 1.671875 90.9296875 C-1.05076161 87.78720506 -4.02100952 84.89749834 -7 82 C-5.37238537 77.86464402 -2.36747768 75.11335802 0.7421875 72.0625 C1.30696808 71.50054932 1.87174866 70.93859863 2.4536438 70.35961914 C4.25610923 68.5683167 6.06539685 66.78408866 7.875 65 C9.08509542 63.79994284 10.29473589 62.59942674 11.50390625 61.3984375 C13.73010161 59.1885455 15.95888167 56.98133577 18.19091797 54.77734375 C20.46828959 52.5257029 22.73852993 50.26758766 25 48 C24.53851563 47.41476562 24.07703125 46.82953125 23.6015625 46.2265625 C15.14478164 35.09570073 8.51315955 22.83477744 2.875 10.0625 C2.43208618 9.06053589 2.43208618 9.06053589 1.98022461 8.03833008 C0.76353223 5.18379684 0 3.13686321 0 0 Z " fill="#081842" transform="translate(333,392)"/>
<path d="M0 0 C0 6.6 0 13.2 0 20 C-2.97 20.0928125 -2.97 20.0928125 -6 20.1875 C-12.29242838 20.7073093 -16.3991465 21.63009918 -21 26 C-28.33263181 34.9052733 -26.78340353 47.29405976 -26.8125 58.125 C-26.83567081 60.15106827 -26.86104146 62.17711264 -26.88867188 64.203125 C-26.95527727 69.13596057 -26.97658595 74.06602062 -27 79 C-33.93 79 -40.86 79 -48 79 C-48 53.26 -48 27.52 -48 1 C-41.07 1 -34.14 1 -27 1 C-26.67 4.63 -26.34 8.26 -26 12 C-25.154375 10.9275 -24.30875 9.855 -23.4375 8.75 C-16.80979888 1.00984786 -10.18273182 0 0 0 Z " fill="#112A5C" transform="translate(378,742)"/>
<path d="M0 0 C5.8471875 -0.12375 5.8471875 -0.12375 11.8125 -0.25 C13.01753174 -0.28641602 14.22256348 -0.32283203 15.46411133 -0.36035156 C23.82326223 -0.44490452 32.27056486 0.45248852 38.5625 6.4375 C41.40518059 11.50488714 42.59043461 15.09565395 42 21 C40.24565006 26.60443683 38.19001711 30.9107041 33 34 C28.68513451 35.69799008 25.13288159 36.23936078 20.5078125 36.1953125 C19.4264502 36.19031738 18.34508789 36.18532227 17.23095703 36.18017578 C15.87599121 36.16196777 14.52102539 36.14375977 13.125 36.125 C8.79375 36.08375 4.4625 36.0425 0 36 C0 24.12 0 12.24 0 0 Z " fill="#F6F7F9" transform="translate(170,733)"/>
<path d="M0 0 C4.740144 2.79298448 8.29573003 6.0641163 10.7890625 11.05078125 C10.7890625 13.03078125 10.7890625 15.01078125 10.7890625 17.05078125 C-1.4209375 17.05078125 -13.6309375 17.05078125 -26.2109375 17.05078125 C-25.11701686 9.39333674 -23.74024436 6.96080574 -18.2109375 2.05078125 C-12.5380685 -1.3109189 -6.21795843 -2.66954752 0 0 Z " fill="#F6F6F8" transform="translate(286.2109375,757.94921875)"/>
<path d="M0 0 C4.45605608 2.57719661 7.38454797 5.41753345 9.71875 10.0859375 C10.21375 13.5509375 10.21375 13.5509375 10.71875 17.0859375 C-1.49125 17.0859375 -13.70125 17.0859375 -26.28125 17.0859375 C-25.17794734 9.36281885 -23.73308139 7.10795646 -18.28125 2.0859375 C-12.87953294 -1.75528352 -6.18426556 -2.47794202 0 0 Z " fill="#F5FBF7" transform="translate(656.28125,757.9140625)"/>
<path d="M0 0 C0.66 0.33 1.32 0.66 2 1 C-0.83719247 6.22043414 -4.05561126 11.0306513 -7.51171875 15.86328125 C-9.01891645 17.91763418 -9.01891645 17.91763418 -10 20 C-10.66 20 -11.32 20 -12 20 C-12.13051758 20.58990723 -12.26103516 21.17981445 -12.39550781 21.78759766 C-13.33276842 25.21791093 -15.10858618 28.23911442 -16.75 31.375 C-20.50263528 38.73273247 -23.45187483 46.13440461 -26 54 C-26.23960449 54.72058594 -26.47920898 55.44117188 -26.72607422 56.18359375 C-31.68089996 71.08891607 -35.93362013 85.86160747 -37.31738281 101.55712891 C-37.65279411 105.13054924 -37.96363489 106.94545233 -40 110 C-41.16635018 114.95894367 -41.13029979 119.83719252 -41.09765625 124.8984375 C-41.0962413 125.73339752 -41.09482635 126.56835754 -41.09336853 127.42861938 C-41.08780174 130.07745042 -41.07525547 132.7261948 -41.0625 135.375 C-41.0574807 137.17838419 -41.05291855 138.98176971 -41.04882812 140.78515625 C-41.0378432 145.19013721 -41.02060163 149.59505394 -41 154 C-40.34 154 -39.68 154 -39 154 C-38.67 153.01 -38.34 152.02 -38 151 C-36.91639131 157.06820868 -37.20925266 161.10106757 -39 167 C-42.38561277 163.61438723 -42.06729243 158.8675903 -42.625 154.25 C-42.75543701 153.17322998 -42.88587402 152.09645996 -43.02026367 150.98706055 C-44.22092209 140.28921755 -44.47361677 129.74852447 -44 119 C-43.96277832 118.154375 -43.92555664 117.30875 -43.88720703 116.4375 C-41.72328606 75.34678097 -26.6131443 31.72427798 0 0 Z " fill="#1D2A55" transform="translate(362,188)"/>
<path d="M0 0 C1.485 0.495 1.485 0.495 3 1 C-20.57307026 26.93037729 -55.77592345 43.4953379 -89 52.875 C-90.01376709 53.16125244 -91.02753418 53.44750488 -92.07202148 53.74243164 C-101.51775234 56.30802447 -110.92864153 58.32142717 -120.75 58.125 C-122.53664063 58.09792969 -122.53664063 58.09792969 -124.359375 58.0703125 C-125.66648437 58.03550781 -125.66648437 58.03550781 -127 58 C-124.58380264 55.08318471 -122.83323019 54.53516737 -119.1171875 54.078125 C-118.1279126 53.94398193 -117.1386377 53.80983887 -116.11938477 53.67163086 C-114.51341431 53.46292358 -114.51341431 53.46292358 -112.875 53.25 C-81.04748065 48.5612989 -51.87880482 36.99068722 -25.109375 19.25 C-23 18 -23 18 -21 18 C-21 17.34 -21 16.68 -21 16 C-15.58823529 12 -15.58823529 12 -13 12 C-13 11.34 -13 10.68 -13 10 C-11.61145241 9.0517236 -10.21607258 8.11200139 -8.7890625 7.22265625 C-6.16461996 5.42909617 -3.91506772 3.25959303 -1.61328125 1.07421875 C-0.81470703 0.54248047 -0.81470703 0.54248047 0 0 Z " fill="#142A5B" transform="translate(680,472)"/>
<path d="M0 0 C15.18 0 30.36 0 46 0 C46 0.66 46 1.32 46 2 C31.48 2 16.96 2 2 2 C2 36.32 2 70.64 2 106 C7.94 106 13.88 106 20 106 C20 95.11 20 84.22 20 73 C20.33 73 20.66 73 21 73 C21 84.22 21 95.44 21 107 C14.07 107 7.14 107 0 107 C0 71.69 0 36.38 0 0 Z " fill="#243765" transform="translate(149,714)"/>
<path d="M0 0 C0.99 0 1.98 0 3 0 C3.66 1.65 4.32 3.3 5 5 C4.3709375 5.73863281 3.741875 6.47726563 3.09375 7.23828125 C-2.58857341 13.95719955 -7.92792657 20.80275614 -13 28 C-17.21852642 27.51953002 -18.88413108 25.25202971 -21.5625 22.125 C-24.56202709 18.60799893 -24.56202709 18.60799893 -27.796875 15.31640625 C-28.19390625 14.88199219 -28.5909375 14.44757813 -29 14 C-28.6875 11.8125 -28.6875 11.8125 -28 10 C-25.875 9.1875 -25.875 9.1875 -23 9 C-19.69472563 11.37979755 -16.7985561 14.04596856 -14 17 C-13.78472656 16.46761719 -13.56945312 15.93523437 -13.34765625 15.38671875 C-11.49919195 12.11306168 -8.99900822 9.53143766 -6.4375 6.8125 C-5.93025391 6.26658203 -5.42300781 5.72066406 -4.90039062 5.15820312 C-1.44294085 1.44294085 -1.44294085 1.44294085 0 0 Z " fill="#19C0DD" transform="translate(616,248)"/>
<path d="M0 0 C1.35990466 5.19236325 0.67229819 7.41576888 -2 12 C-3.88958445 14.55819593 -5.92095878 16.96953926 -8 19.375 C-8.53367187 20.01566406 -9.06734375 20.65632813 -9.6171875 21.31640625 C-10.13539063 21.92097656 -10.65359375 22.52554687 -11.1875 23.1484375 C-11.65542969 23.69677246 -12.12335938 24.24510742 -12.60546875 24.81005859 C-14 26 -14 26 -17 26 C-18.8671875 23.98828125 -18.8671875 23.98828125 -20.875 21.3125 C-23.13224558 18.3542983 -25.27891124 15.59670206 -28.0625 13.125 C-28.701875 12.42375 -29.34125 11.7225 -30 11 C-29.8125 8.6875 -29.8125 8.6875 -29 7 C-28.34 7 -27.68 7 -27 7 C-27 6.34 -27 5.68 -27 5 C-22.26672525 7.00253932 -18.6063662 10.3936338 -15 14 C-14.61666504 13.57589844 -14.23333008 13.15179688 -13.83837891 12.71484375 C-12.10616974 10.80474337 -10.36573999 8.90232767 -8.625 7 C-8.02171875 6.33226562 -7.4184375 5.66453125 -6.796875 4.9765625 C-6.21679688 4.34492188 -5.63671875 3.71328125 -5.0390625 3.0625 C-4.50490723 2.47597656 -3.97075195 1.88945312 -3.42041016 1.28515625 C-2 0 -2 0 0 0 Z " fill="#1CBFDE" transform="translate(501,314)"/>
<path d="M0 0 C1.32 0.66 2.64 1.32 4 2 C3.40010147 5.20681055 2.38172371 7.09581949 0.3125 9.6015625 C-0.22117187 10.25640625 -0.75484375 10.91125 -1.3046875 11.5859375 C-1.86414063 12.25882812 -2.42359375 12.93171875 -3 13.625 C-4.10565673 14.97013076 -5.20989252 16.31643113 -6.3125 17.6640625 C-6.80363281 18.25654785 -7.29476562 18.8490332 -7.80078125 19.45947266 C-9.08341128 21.00305189 -9.08341128 21.00305189 -10 23 C-14.03002504 22.46512254 -15.90131325 20.47105522 -18.6875 17.625 C-19.47511719 16.83351563 -20.26273438 16.04203125 -21.07421875 15.2265625 C-23 13 -23 13 -24 10 C-22.68 9.01 -21.36 8.02 -20 7 C-17.36 8.98 -14.72 10.96 -12 13 C-8.04 8.71 -4.08 4.42 0 0 Z " fill="#2DBCB8" transform="translate(602,346)"/>
<path d="M0 0 C0.66 0.33 1.32 0.66 2 1 C-0.83719247 6.22043414 -4.05561126 11.0306513 -7.51171875 15.86328125 C-9.01891645 17.91763418 -9.01891645 17.91763418 -10 20 C-10.66 20 -11.32 20 -12 20 C-12.13051758 20.58990723 -12.26103516 21.17981445 -12.39550781 21.78759766 C-13.33276842 25.21791093 -15.10858618 28.23911442 -16.75 31.375 C-22.50771842 42.66406719 -26.24870561 54.51478279 -29.94580078 66.60473633 C-30.18411621 67.37712646 -30.42243164 68.1495166 -30.66796875 68.9453125 C-30.87703857 69.63125488 -31.0861084 70.31719727 -31.30151367 71.02392578 C-32.04174693 73.11810544 -32.96857524 75.03493668 -34 77 C-36 74 -36 74 -35.87426758 71.85571289 C-30.47310177 47.49574988 -17.86352822 17.86352822 0 0 Z " fill="#16295D" transform="translate(362,188)"/>
<path d="M0 0 C0.54330893 3.72554698 0.77535899 5.85886431 -1.3828125 9.03515625 C-3.20308779 11.08001095 -5.08621316 13.042718 -7 15 C-7.99163414 16.15608832 -8.97255328 17.32154495 -9.9375 18.5 C-10.618125 19.325 -11.29875 20.15 -12 21 C-16.95532767 17.13242719 -20.96476648 12.81123996 -25 8 C-24.34 6.68 -23.68 5.36 -23 4 C-18.73133091 4.47429657 -16.89066852 7.03521178 -14 10 C-13.01 10.33 -12.02 10.66 -11 11 C-10.7525 10.443125 -10.505 9.88625 -10.25 9.3125 C-8.08771779 5.31227791 -5.04810776 0 0 0 Z " fill="#29B1AD" transform="translate(507,401)"/>
<path d="M0 0 C24.15611775 8.60354879 54.81442575 22.70838332 69 45 C65.46679901 43.47650967 63.04791612 41.3697049 60.25 38.75 C52.87516173 31.69895893 52.87516173 31.69895893 44 27 C44 26.34 44 25.68 44 25 C43.48953125 24.75507813 42.9790625 24.51015625 42.453125 24.2578125 C39.84850645 22.92232337 37.31215189 21.48356542 34.77197266 20.0300293 C22.90671426 13.25213296 10.86172496 6.69947643 -2 2 C-1.34 1.34 -0.68 0.68 0 0 Z " fill="#3867B1" transform="translate(610,116)"/>
<path d="M0 0 C4.09151077 0.43837615 7.7813713 0.9380552 11.75 2.0625 C17.08430385 3.50276204 22.52050747 3.16438478 28 3 C28 3.66 28 4.32 28 5 C38.25112107 5.98715307 48.37988895 6.07232695 58.67041016 5.90405273 C60.6473477 5.87395551 62.62446772 5.85669962 64.6015625 5.83984375 C66.33913818 5.81458618 66.33913818 5.81458618 68.11181641 5.78881836 C71 6 71 6 74 8 C71.13527944 10.86472056 61.50718696 9.24627616 57.3125 9.25 C56.54013 9.25100708 55.76776001 9.25201416 54.97198486 9.25305176 C36.82009517 9.23701194 18.31651444 7.91587699 1 2 C0.67 1.34 0.34 0.68 0 0 Z " fill="#1E2B54" transform="translate(478,523)"/>
<path d="M0 0 C4.31354968 0.45888826 6.68532016 3.22904917 9.5625 6.1875 C10.0884375 6.72358887 10.614375 7.25967773 11.15625 7.81201172 C23.16629869 20.28647776 34.64411815 35.29419821 42 51 C41.34 51.66 40.68 52.32 40 53 C38.82807953 51.04480616 37.6626071 49.0857461 36.5 47.125 C35.52546875 45.48917969 35.52546875 45.48917969 34.53125 43.8203125 C33 41 33 41 33 39 C32.34 39 31.68 39 31 39 C27.05221204 34.71188549 23.97299279 29.9888214 21.21484375 24.875 C18.97935511 21.42472814 16.10608011 18.51349077 13.31640625 15.5078125 C10.61514079 12.5833396 8.05543845 9.55447563 5.5078125 6.49609375 C3.96172045 4.74072854 3.96172045 4.74072854 1 4 C0.3125 1.9375 0.3125 1.9375 0 0 Z " fill="#335CAA" transform="translate(681,163)"/>
<path d="M0 0 C-2.91402305 2.91402305 -6.49491471 3.45763011 -10.375 4.5 C-11.1906543 4.72067139 -12.00630859 4.94134277 -12.84667969 5.16870117 C-24.05149232 8.13799864 -34.38162422 9.30936504 -46 9 C-43.50425791 5.92638474 -41.48612408 5.47060426 -37.625 4.9375 C-36.55636719 4.78023437 -35.48773437 4.62296875 -34.38671875 4.4609375 C-32.71029297 4.23277344 -32.71029297 4.23277344 -31 4 C-23.60193871 2.96444694 -16.5070915 1.76281342 -9.3581543 -0.44458008 C-5.92633058 -1.25288311 -3.39611434 -0.83016128 0 0 Z " fill="#0B1D48" transform="translate(599,521)"/>
<path d="M0 0 C-0.25170898 1.87060547 -0.25170898 1.87060547 -1 4 C-2.73071289 5.15673828 -2.73071289 5.15673828 -4.97265625 6.0703125 C-6.19952148 6.57884766 -6.19952148 6.57884766 -7.45117188 7.09765625 C-8.31291016 7.43667969 -9.17464844 7.77570312 -10.0625 8.125 C-11.31450195 8.64513672 -11.31450195 8.64513672 -12.59179688 9.17578125 C-17.64844176 11.23312235 -22.59567535 13.15066588 -28 14 C-30.5 12.625 -30.5 12.625 -32 11 C-30.51113281 10.56300781 -30.51113281 10.56300781 -28.9921875 10.1171875 C-20.62782163 7.61036282 -12.65336689 4.73506453 -4.6953125 1.13671875 C-2 0 -2 0 0 0 Z " fill="#102554" transform="translate(627,508)"/>
<path d="M0 0 C0.33 0 0.66 0 1 0 C1 5.61 1 11.22 1 17 C3.51625 16.071875 6.0325 15.14375 8.625 14.1875 C9.40568848 13.90156982 10.18637695 13.61563965 10.99072266 13.32104492 C14.25404124 12.10693134 17.29764038 10.84570596 20.3984375 9.23828125 C21.25695312 8.82964844 22.11546875 8.42101562 23 8 C23.66 8.33 24.32 8.66 25 9 C20.9542234 11.07535514 16.89407563 13.11523688 12.80810547 15.11035156 C11.25029227 15.87684782 9.70401546 16.66671007 8.16015625 17.4609375 C7.34417969 17.84507812 6.52820313 18.22921875 5.6875 18.625 C4.99011719 18.96789062 4.29273438 19.31078125 3.57421875 19.6640625 C-3.96951761 20.64852582 -12.40961991 15.10364764 -19 11.9375 C-19.95261719 11.49083984 -20.90523437 11.04417969 -21.88671875 10.58398438 C-22.79035156 10.15279297 -23.69398438 9.72160156 -24.625 9.27734375 C-25.44226563 8.88796631 -26.25953125 8.49858887 -27.1015625 8.09741211 C-29 7 -29 7 -30 5 C-24.81352171 6.60415114 -19.94196856 8.71524516 -15 10.9375 C-14.21882812 11.28490234 -13.43765625 11.63230469 -12.6328125 11.99023438 C-8.36878275 13.89612646 -4.1599596 15.87335399 0 18 C-0.08378906 16.86820312 -0.16757812 15.73640625 -0.25390625 14.5703125 C-0.35706608 13.08856219 -0.45991453 11.60679018 -0.5625 10.125 C-0.61857422 9.37863281 -0.67464844 8.63226563 -0.73242188 7.86328125 C-1.11328125 2.2265625 -1.11328125 2.2265625 0 0 Z " fill="#32A769" transform="translate(535,456)"/>
<path d="M0 0 C2.97 0.99 5.94 1.98 9 3 C9 3.66 9 4.32 9 5 C10.2065625 5.36158203 10.2065625 5.36158203 11.4375 5.73046875 C15.79691657 7.28398891 19.84904873 9.27753164 24 11.3125 C34.07322567 16.16916433 44.22658116 19.98181859 55 23 C55 23.33 55 23.66 55 24 C48.27265118 23.49443771 42.64628508 22.1366445 36.375 19.6875 C35.04311646 19.17376831 35.04311646 19.17376831 33.68432617 18.6496582 C26.35535312 15.72789112 19.31579081 12.3148144 12.3125 8.6875 C11.31460449 8.1721167 10.31670898 7.6567334 9.28857422 7.12573242 C2.25834114 3.38751171 2.25834114 3.38751171 0 0 Z " fill="#1C2A53" transform="translate(422,499)"/>
<path d="M0 0 C3.46272343 4.11926427 5.33360274 8.89834677 7.48242188 13.77539062 C8.96662535 17.5607033 8.96662535 17.5607033 12 20 C12.350625 21.216875 12.70125 22.43375 13.0625 23.6875 C14.73046876 29.1193145 17.68725133 33.47558705 20.86352539 38.12573242 C24.4985732 43.49865771 24.4985732 43.49865771 25 47 C20.77578537 43.30757486 18.16019397 38.76455139 15.3125 34 C14.79010742 33.12802979 14.26771484 32.25605957 13.72949219 31.35766602 C0 7.95093414 0 7.95093414 0 0 Z " fill="#1A2854" transform="translate(333,392)"/>
<path d="M0 0 C0 3 0 3 -2.5703125 5.91088867 C-3.74753841 7.08763873 -4.93304138 8.25614424 -6.125 9.41796875 C-6.74648926 10.03521317 -7.36797852 10.65245758 -8.00830078 11.28840637 C-9.99861833 13.26190579 -11.99910395 15.22473225 -14 17.1875 C-15.34964009 18.52209737 -16.69860736 19.85737551 -18.046875 21.19335938 C-21.35682227 24.47019575 -24.67592738 27.73749597 -28 31 C-28.66 30.67 -29.32 30.34 -30 30 C-24.82063917 24.16294256 -19.57412385 18.46094367 -14 13 C-13.21625 12.195625 -12.4325 11.39125 -11.625 10.5625 C-7.87445451 6.90125322 -3.93793666 3.45749123 0 0 Z " fill="#233563" transform="translate(233,542)"/>
<path d="M0 0 C-0.33 0.66 -0.66 1.32 -1 2 C-5.80548597 2.04936883 -10.61082494 2.08570443 -15.41650391 2.10986328 C-17.05194672 2.11993254 -18.68737149 2.13358881 -20.32275391 2.15087891 C-22.6709437 2.17508705 -25.01889588 2.18647357 -27.3671875 2.1953125 C-28.46726639 2.21079636 -28.46726639 2.21079636 -29.58956909 2.22659302 C-31.39462697 2.22699368 -33.1990783 2.12212755 -35 2 C-35.66 1.34 -36.32 0.68 -37 0 C-33.01674588 -0.16916555 -29.03323891 -0.32953886 -25.04931641 -0.48217773 C-23.03660132 -0.56106542 -21.02415356 -0.64668151 -19.01171875 -0.73242188 C-12.53737155 -0.97642994 -6.39407247 -1.10102013 0 0 Z " fill="#2A335C" transform="translate(552,530)"/>
<path d="M0 0 C0.66 0.33 1.32 0.66 2 1 C-1.88639438 4.96067125 -5.78263121 8.91129439 -9.68823242 12.85302734 C-11.01486461 14.1947257 -12.33878919 15.53910699 -13.65991211 16.88623047 C-15.56174833 18.82454418 -17.4731829 20.75293148 -19.38671875 22.6796875 C-19.97337814 23.28183075 -20.56003754 23.883974 -21.16447449 24.50436401 C-24.24516124 27.58629686 -26.70403384 29.75448647 -31 31 C-24.59215895 23.27773001 -17.61279129 16.30203539 -9.99609375 9.7734375 C-6.50832134 6.67471211 -3.25855627 3.33655363 0 0 Z " fill="#132959" transform="translate(266,510)"/>
<path d="M0 0 C0.33 0 0.66 0 1 0 C1 4.62 1 9.24 1 14 C1.66 14 2.32 14 3 14 C3.33 13.01 3.66 12.02 4 11 C5.08360869 17.06820868 4.79074734 21.10106757 3 27 C-1.53418203 22.46581797 -1.10584215 12.55349298 -1.1875 6.3125 C-1 3 -1 3 0 0 Z " fill="#131F49" transform="translate(320,328)"/>
<path d="M0 0 C1.69517813 1.6438091 3.35558125 3.30600079 5 5 C5.83144531 5.85464844 5.83144531 5.85464844 6.6796875 6.7265625 C11.52797637 11.96271448 14.80805347 17.63949117 18 24 C17.34 24.66 16.68 25.32 16 26 C14.82807953 24.04480616 13.6626071 22.0857461 12.5 20.125 C11.52546875 18.48917969 11.52546875 18.48917969 10.53125 16.8203125 C9 14 9 14 9 12 C8.34 12 7.68 12 7 12 C5.2734375 10.13671875 5.2734375 10.13671875 3.375 7.6875 C2.74335937 6.88699219 2.11171875 6.08648437 1.4609375 5.26171875 C0 3 0 3 0 0 Z " fill="#4075B8" transform="translate(705,190)"/>
<path d="M0 0 C0.66 0.33 1.32 0.66 2 1 C1.30849854 1.41886475 0.61699707 1.83772949 -0.09545898 2.26928711 C-3.21037012 4.15721532 -6.32395034 6.04732738 -9.4375 7.9375 C-10.52611328 8.59685547 -11.61472656 9.25621094 -12.73632812 9.93554688 C-13.77080078 10.56396484 -14.80527344 11.19238281 -15.87109375 11.83984375 C-16.82943115 12.42113037 -17.78776855 13.00241699 -18.77514648 13.60131836 C-20.88983546 14.81573652 -20.88983546 14.81573652 -22 16 C-22.23287008 17.68183948 -22.41264166 19.3712416 -22.5625 21.0625 C-22.68818359 22.44115234 -22.68818359 22.44115234 -22.81640625 23.84765625 C-22.87699219 24.55792969 -22.93757812 25.26820313 -23 26 C-23.33 26 -23.66 26 -24 26 C-24.33 22.37 -24.66 18.74 -25 15 C-21.5846335 12.87288578 -18.16777807 10.74823303 -14.75 8.625 C-13.78191406 8.02171875 -12.81382812 7.4184375 -11.81640625 6.796875 C-10.88183594 6.21679688 -9.94726562 5.63671875 -8.984375 5.0390625 C-7.69611816 4.23782959 -7.69611816 4.23782959 -6.38183594 3.42041016 C-2.09314205 0.86284343 -2.09314205 0.86284343 0 0 Z " fill="#29A174" transform="translate(541,389)"/>
<path d="M0 0 C0.66 0.33 1.32 0.66 2 1 C1.09378906 1.88300781 0.18757813 2.76601562 -0.74609375 3.67578125 C-7.98777945 10.79010562 -14.79023161 17.95030024 -21 26 C-21.33 25.01 -21.66 24.02 -22 23 C-14.99792665 14.98470673 -7.57474917 7.46938171 0 0 Z " fill="#0E215A" transform="translate(389,158)"/>
<path d="M0 0 C0.703125 1.56640625 0.703125 1.56640625 1 4 C0.01142101 6.43946405 -1.01160827 8.63312009 -2.25 10.9375 C-2.56324219 11.54529297 -2.87648438 12.15308594 -3.19921875 12.77929688 C-6.05217247 18.26620165 -9.0525648 23.23585407 -13 28 C-13.66 27.67 -14.32 27.34 -15 27 C-14.25556641 25.83597656 -14.25556641 25.83597656 -13.49609375 24.6484375 C-8.46532816 16.64885199 -4.08846357 8.52189125 0 0 Z " fill="#2765AD" transform="translate(700,392)"/>
<path d="M0 0 C3.46272343 4.11926427 5.33360274 8.89834677 7.48242188 13.77539062 C8.96662535 17.5607033 8.96662535 17.5607033 12 20 C11.67 20.99 11.34 21.98 11 23 C6.94260942 19.56198984 5.25854413 15.72611059 3.25 10.9375 C2.93417969 10.21755859 2.61835938 9.49761719 2.29296875 8.75585938 C0.98075026 5.69685653 0 3.36196942 0 0 Z " fill="#111E4C" transform="translate(333,392)"/>
<path d="M0 0 C5.44039142 0.84167491 8.62883839 4.9234191 12 9 C13.5 12.5 13.5 12.5 14 15 C11.43588448 12.43588448 8.87896726 9.8732038 6.375 7.25 C4.13466888 4.80995326 4.13466888 4.80995326 1 4 C0.3125 1.9375 0.3125 1.9375 0 0 Z " fill="#3B6CB5" transform="translate(681,163)"/>
<path d="M0 0 C0.99 0.33 1.98 0.66 3 1 C-0.63 4.63 -4.26 8.26 -8 12 C-8.99 11.67 -9.98 11.34 -11 11 C-7.37 7.37 -3.74 3.74 0 0 Z " fill="#1E2B53" transform="translate(354,444)"/>
<path d="M0 0 C4.87799527 0.41811388 6.84882227 2.36402569 10 6 C11.41773253 7.9608898 12.71184651 9.94849629 14 12 C10.31291925 10.42351454 7.70126855 8.12557062 4.75 5.4375 C3.85796875 4.63183594 2.9659375 3.82617188 2.046875 2.99609375 C1.37140625 2.33738281 0.6959375 1.67867187 0 1 C0 0.67 0 0.34 0 0 Z " fill="#4373B7" transform="translate(665,149)"/>
<path d="M0 0 C-2.85584773 1.90389849 -4.9311762 2.69462177 -8.1875 3.625 C-9.08855469 3.88539063 -9.98960937 4.14578125 -10.91796875 4.4140625 C-11.94857422 4.70410156 -11.94857422 4.70410156 -13 5 C-13 4.01 -13 3.02 -13 2 C-15.97 2 -18.94 2 -22 2 C-22 1.67 -22 1.34 -22 1 C-14.65623924 0.42240084 -7.36901413 -0.14738028 0 0 Z " fill="#21C8CC" transform="translate(601,231)"/>
<path d="M0 0 C5.50808397 0.59015185 10.64878069 1.56663769 16 3 C16 3.66 16 4.32 16 5 C10.04492601 4.6083965 5.37180176 3.62875405 0 1 C0 0.67 0 0.34 0 0 Z " fill="#263258" transform="translate(478,523)"/>
<path d="M0 0 C0.66 0.33 1.32 0.66 2 1 C1.87431641 2.10408203 1.87431641 2.10408203 1.74609375 3.23046875 C1.59333984 4.69419922 1.59333984 4.69419922 1.4375 6.1875 C1.33308594 7.15042969 1.22867188 8.11335937 1.12109375 9.10546875 C0.87751332 11.99497744 0.87751332 11.99497744 1.59765625 14.73828125 C1.73042969 15.48464844 1.86320313 16.23101563 2 17 C1.34 17.66 0.68 18.32 0 19 C-1.12050151 15.63849548 -1.13296652 13.03713274 -1.125 9.5 C-1.12757813 8.3553125 -1.13015625 7.210625 -1.1328125 6.03125 C-1 3 -1 3 0 0 Z " fill="#13224F" transform="translate(196,587)"/>
<path d="M0 0 C0.99 0.33 1.98 0.66 3 1 C-0.3 4.3 -3.6 7.6 -7 11 C-7.66 10.67 -8.32 10.34 -9 10 C-6.03 6.7 -3.06 3.4 0 0 Z " fill="#162A58" transform="translate(212,562)"/>
<path d="M0 0 C0 1.32 0 2.64 0 4 C-5.75 7 -5.75 7 -8 7 C-8 5.68 -8 4.36 -8 3 C-2.25 0 -2.25 0 0 0 Z " fill="#182C5D" transform="translate(635,504)"/>
<path d="M0 0 C1.8272911 2.74093665 2.93698178 5.13825324 4.125 8.1875 C4.47820313 9.08855469 4.83140625 9.98960937 5.1953125 10.91796875 C5.46085938 11.60503906 5.72640625 12.29210937 6 13 C5.34 13.66 4.68 14.32 4 15 C3.13153169 13.25705322 2.28069373 11.50531337 1.4375 9.75 C0.72400391 8.28820312 0.72400391 8.28820312 -0.00390625 6.796875 C-1.03510273 3.90143703 -1.11346788 2.80033839 0 0 Z " fill="#3866B0" transform="translate(729,226)"/>
<path d="M0 0 C0 0.66 0 1.32 0 2 C-2.40545638 3.20272819 -3.94996953 3.10071472 -6.625 3.0625 C-7.85089844 3.04896484 -7.85089844 3.04896484 -9.1015625 3.03515625 C-10.04128906 3.01775391 -10.04128906 3.01775391 -11 3 C-11.33 2.34 -11.66 1.68 -12 1 C-7.9472484 0.01751476 -4.16138263 -0.08159574 0 0 Z " fill="#0F1E48" transform="translate(506,526)"/>
<path d="M0 0 C1.32 1.32 2.64 2.64 4 4 C3.12601562 3.64615234 3.12601562 3.64615234 2.234375 3.28515625 C-0.09547647 2.72494493 -0.09547647 2.72494493 -1.921875 4.43359375 C-2.82679688 5.42552734 -2.82679688 5.42552734 -3.75 6.4375 C-4.36359375 7.09621094 -4.9771875 7.75492187 -5.609375 8.43359375 C-6.29773438 9.20896484 -6.29773438 9.20896484 -7 10 C-7 6.04435836 -5.59478606 4.89133304 -3 2 C-2.01 1.34 -1.02 0.68 0 0 Z " fill="#325E9A" transform="translate(318,483)"/>
<path d="M0 0 C-1.36370299 2.99220268 -2.94908083 5.29026529 -5.125 7.75 C-5.93324219 8.67039063 -5.93324219 8.67039063 -6.7578125 9.609375 C-7.16773438 10.06828125 -7.57765625 10.5271875 -8 11 C-8.33 10.01 -8.66 9.02 -9 8 C-7.63671875 5.95703125 -7.63671875 5.95703125 -5.6875 3.8125 C-5.05199219 3.09707031 -4.41648437 2.38164062 -3.76171875 1.64453125 C-2 0 -2 0 0 0 Z " fill="#1A2B61" transform="translate(376,173)"/>
<path d="M0 0 C1.12894876 0.93274109 2.25300876 1.87140122 3.375 2.8125 C4.00148438 3.33457031 4.62796875 3.85664062 5.2734375 4.39453125 C7 6 7 6 9 9 C6 9 6 9 4.39453125 7.5390625 C3.61142578 6.59160156 3.61142578 6.59160156 2.8125 5.625 C2.28269531 4.99851562 1.75289063 4.37203125 1.20703125 3.7265625 C0 2 0 2 0 0 Z " fill="#4071AC" transform="translate(353,518)"/>
<path d="M0 0 C0.33 0 0.66 0 1 0 C1.61528766 5.07612318 -0.38341651 7.82982006 -3 12 C-3.66 11.67 -4.32 11.34 -5 11 C-3.55049545 7.2089881 -1.84827434 3.6125362 0 0 Z " fill="#1D3269" transform="translate(349,206)"/>
<path d="M0 0 C0 3 0 3 -1.53125 4.82421875 C-2.1809375 5.43910156 -2.830625 6.05398438 -3.5 6.6875 C-4.1496875 7.31011719 -4.799375 7.93273437 -5.46875 8.57421875 C-5.9740625 9.04472656 -6.479375 9.51523437 -7 10 C-7.99 9.67 -8.98 9.34 -10 9 C-6.7 6.03 -3.4 3.06 0 0 Z " fill="#0B2258" transform="translate(693,460)"/>
<path d="M0 0 C0.99 0 1.98 0 3 0 C4.5625 2.8125 4.5625 2.8125 6 6 C5.67 6.99 5.34 7.98 5 9 C0.57142857 3.85714286 0.57142857 3.85714286 0 0 Z " fill="#436EB2" transform="translate(723,218)"/>
<path d="M0 0 C1.65 0.33 3.3 0.66 5 1 C5 1.66 5 2.32 5 3 C0.545 3.495 0.545 3.495 -4 4 C-4 3.34 -4 2.68 -4 2 C-2.68 2 -1.36 2 0 2 C0 1.34 0 0.68 0 0 Z " fill="#1C2B54" transform="translate(579,524)"/>
<path d="M0 0 C2.64 0 5.28 0 8 0 C8.66 1.65 9.32 3.3 10 5 C5 3 5 3 0 1 C0 0.67 0 0.34 0 0 Z " fill="#39CDD3" transform="translate(612,233)"/>
<path d="M0 0 C0 3 0 3 -1.2421875 4.60546875 C-1.78101563 5.12753906 -2.31984375 5.64960937 -2.875 6.1875 C-3.40867188 6.71730469 -3.94234375 7.24710938 -4.4921875 7.79296875 C-6 9 -6 9 -8 9 C-6.90101298 5.70303895 -6.05402613 4.95329411 -3.4375 2.8125 C-2.79683594 2.28269531 -2.15617188 1.75289062 -1.49609375 1.20703125 C-0.75552734 0.60955078 -0.75552734 0.60955078 0 0 Z " fill="#132455" transform="translate(233,542)"/>
<path d="M0 0 C0.66 0 1.32 0 2 0 C2.33 1.98 2.66 3.96 3 6 C2.01 6.495 2.01 6.495 1 7 C1 6.01 1 5.02 1 4 C0.01 3.67 -0.98 3.34 -2 3 C-1.34 2.01 -0.68 1.02 0 0 Z " fill="#24BCD8" transform="translate(499,314)"/>
<path d="M0 0 C0.33 0.66 0.66 1.32 1 2 C1.66 2 2.32 2 3 2 C2.34 4.64 1.68 7.28 1 10 C0.67 10 0.34 10 0 10 C-1.125 3.375 -1.125 3.375 0 0 Z " fill="#1A2F65" transform="translate(333,238)"/>
<path d="M0 0 C2.52588702 2.36292656 3.88820837 3.66462511 5 7 C4.34 7.66 3.68 8.32 3 9 C0.70620251 5.55930376 0 4.27709699 0 0 Z " fill="#355FA9" transform="translate(718,207)"/>
<path d="M0 0 C0 3 0 3 -1.875 5.1875 C-4 7 -4 7 -6 7 C-4.60667426 3.63279613 -3.0210714 2.0140476 0 0 Z " fill="#1D3262" transform="translate(360,746)"/>
<path d="M0 0 C0.33 0.66 0.66 1.32 1 2 C0.22265625 3.9453125 0.22265625 3.9453125 -0.9375 6.125 C-1.31777344 6.84945312 -1.69804687 7.57390625 -2.08984375 8.3203125 C-2.39019531 8.87460937 -2.69054687 9.42890625 -3 10 C-3.62109375 8.203125 -3.62109375 8.203125 -4 6 C-2.0625 2.75 -2.0625 2.75 0 0 Z " fill="#182958" transform="translate(202,574)"/>
<path d="M0 0 C0.33 0.66 0.66 1.32 1 2 C-0.98 4.31 -2.96 6.62 -5 9 C-5.66 8.67 -6.32 8.34 -7 8 C-4.69 5.36 -2.38 2.72 0 0 Z " fill="#2A65AA" transform="translate(681,425)"/>
<path d="M0 0 C-5.625 3.875 -5.625 3.875 -9 5 C-9 4.01 -9 3.02 -9 2 C-3.375 -1.125 -3.375 -1.125 0 0 Z " fill="#21A3AC" transform="translate(522,315)"/>
<path d="M0 0 C0.66 0 1.32 0 2 0 C1.34 2.31 0.68 4.62 0 7 C-0.66 7 -1.32 7 -2 7 C-1.125 1.125 -1.125 1.125 0 0 Z " fill="#102258" transform="translate(336,233)"/>
<path d="M0 0 C4.2742558 1.5830577 6.26531794 4.50568404 9 8 C6.46089803 7.61479436 5.27248877 7.29902057 3.515625 5.37109375 C3.09796875 4.73300781 2.6803125 4.09492188 2.25 3.4375 C1.82203125 2.79683594 1.3940625 2.15617188 0.953125 1.49609375 C0.48132813 0.75552734 0.48132813 0.75552734 0 0 Z " fill="#264EA1" transform="translate(674,155)"/>
<path d="M0 0 C2.17854707 3.2678206 3.49760034 6.38058265 5 10 C4.01 10 3.02 10 2 10 C0.39644899 6.49223216 -0.22036864 3.85645121 0 0 Z " fill="#14214D" transform="translate(197,607)"/>
<path d="M0 0 C0.66 0.33 1.32 0.66 2 1 C-3.625 6 -3.625 6 -7 6 C-7 5.34 -7 4.68 -7 4 C-1.7265625 0.77734375 -1.7265625 0.77734375 0 0 Z " fill="#27A971" transform="translate(551,383)"/>
<path d="M0 0 C-0.66 0.66 -1.32 1.32 -2 2 C-4.72869407 1.96712417 -7.2966618 1.43602229 -10 1 C-6.1496895 -1.56687367 -4.41430237 -0.83288724 0 0 Z " fill="#4773B4" transform="translate(588,108)"/>
</svg>
